<?xml version="1.0" encoding="utf-8"?>
<!-- Generator: Adobe Illustrator 14.0.0, SVG Export Plug-In  -->
<!DOCTYPE svg PUBLIC "-//W3C//DTD SVG 1.1//EN" "http://www.w3.org/Graphics/SVG/1.1/DTD/svg11.dtd" [
	<!ENTITY ns_flows "http://ns.adobe.com/Flows/1.0/">
]>
<svg version="1.1"
	 xmlns="http://www.w3.org/2000/svg" xmlns:xlink="http://www.w3.org/1999/xlink" xmlns:a="http://ns.adobe.com/AdobeSVGViewerExtensions/3.0/"
	 x="0px" y="0px" width="30px" height="30px" viewBox="0 0 30 30" enable-background="new 0 0 30 30" xml:space="preserve">
<defs>
</defs>
<path fill-rule="evenodd" clip-rule="evenodd" fill="#FFFFFF" d="M3.852,0h22.298C28.269,0,30,1.733,30,3.851v22.298
	c0,2.119-1.731,3.852-3.851,3.852H3.852C1.733,30.001,0,28.269,0,26.149V3.851C0,1.733,1.733,0,3.852,0L3.852,0z M21.854,3.333
	c-0.744,0-1.351,0.607-1.351,1.35v3.234c0,0.743,0.606,1.35,1.351,1.35h3.389c0.745,0,1.354-0.607,1.354-1.35V4.683
	c0-0.743-0.608-1.35-1.354-1.35H21.854L21.854,3.333z M26.611,12.687H23.97c0.25,0.816,0.383,1.679,0.383,2.574
	c0,4.988-4.175,9.035-9.324,9.035c-5.151,0-9.324-4.047-9.324-9.035c0-0.895,0.133-1.758,0.386-2.574H3.333v12.672
	c0,0.656,0.538,1.192,1.191,1.192h20.893c0.655,0,1.194-0.536,1.194-1.192V12.687L26.611,12.687z M15.029,9.097
	c-3.328,0-6.023,2.614-6.023,5.836c0,3.226,2.695,5.839,6.023,5.839c3.326,0,6.024-2.613,6.024-5.839
	C21.053,11.711,18.354,9.097,15.029,9.097z"/>
</svg>
